<?xml version="1.0" standalone="no"?>
<!DOCTYPE svg PUBLIC "-//W3C//DTD SVG 20010904//EN"
 "http://www.w3.org/TR/2001/REC-SVG-20010904/DTD/svg10.dtd">
<svg version="1.0" xmlns="http://www.w3.org/2000/svg"
 width="612.000000pt" height="620.000000pt" viewBox="0 0 612.000000 620.000000"
 preserveAspectRatio="xMidYMid meet">

<g transform="translate(0.000000,620.000000) scale(0.100000,-0.100000)"
fill="#000000" stroke="none">
<path d="M0 3100 l0 -3100 3060 0 3060 0 0 3100 0 3100 -3060 0 -3060 0 0
-3100z m1817 2525 c13 -24 20 -50 17 -65 -3 -20 -3 -21 4 -6 7 16 25 -10 95
-137 48 -85 87 -160 87 -165 0 -6 4 -12 8 -14 4 -1 102 -172 217 -378 114
-206 232 -417 262 -469 29 -51 51 -96 48 -99 -2 -3 2 -10 10 -16 7 -6 29 -39
47 -72 18 -34 64 -118 102 -185 38 -68 71 -127 73 -131 2 -4 -2 -10 -8 -14 -7
-4 -9 -3 -5 4 3 6 2 13 -4 17 -5 3 -10 0 -10 -7 0 -22 16 -39 31 -33 9 3 26
-17 51 -64 36 -66 40 -85 13 -75 -15 6 -29 -23 -15 -31 5 -3 -1 -25 -13 -48
-52 -96 -351 -632 -356 -637 -4 -3 -19 -31 -35 -63 -16 -33 -35 -61 -43 -64
-7 -3 -11 -9 -8 -14 4 -6 -103 -210 -119 -226 -7 -8 -130 224 -128 239 2 10
-2 17 -9 16 -6 -2 -105 158 -220 357 -115 198 -252 435 -306 527 -53 92 -97
175 -98 185 -3 35 -17 64 -29 60 -10 -4 -114 168 -307 510 -13 22 -70 120
-127 217 -57 97 -100 182 -96 188 4 6 3 8 -4 5 -6 -4 -26 21 -48 60 -52 95
-61 109 -156 273 -47 80 -91 157 -99 172 -8 14 -39 68 -69 119 -30 52 -57 97
-58 101 -2 5 286 7 639 6 l643 -3 23 -40z m3779 22 c-7 -12 -166 -283 -351
-602 -186 -319 -341 -582 -344 -585 -4 -3 -12 -18 -19 -33 -7 -17 -17 -25 -24
-21 -7 4 -8 3 -4 -5 4 -7 -30 -76 -81 -163 -48 -83 -99 -169 -112 -192 -160
-279 -295 -506 -301 -506 -4 0 -7 -6 -7 -12 0 -7 -77 -143 -169 -301 -93 -159
-174 -296 -179 -306 -180 -316 -262 -450 -272 -446 -8 3 -13 -5 -13 -20 0 -13
-12 -44 -27 -69 l-27 -45 -128 0 c-74 0 -128 4 -128 10 0 5 -9 9 -20 9 -11 0
-20 -4 -20 -10 0 -13 -46 -13 -71 0 -10 6 -19 7 -19 2 0 -13 -183 -13 -193 1
-7 9 -10 9 -14 0 -3 -10 -78 -13 -309 -13 l-305 0 17 30 c12 20 22 26 29 20
15 -12 35 7 28 26 -4 11 -9 12 -19 3 -12 -10 -13 -9 -8 5 3 9 10 16 15 16 5 0
9 8 9 18 0 9 9 28 20 42 11 14 20 29 20 34 0 5 22 47 49 95 27 47 178 322 337
611 158 289 290 527 293 530 3 3 18 30 33 60 15 30 44 84 64 120 20 36 85 153
144 260 145 263 151 273 163 289 6 7 12 19 13 25 3 20 84 160 99 172 8 6 12
14 9 17 -10 9 50 107 66 108 9 0 11 2 3 5 -8 4 0 26 23 70 l36 64 -104 1
c-190 1 -193 2 -191 24 2 18 1 18 -9 -3 l-11 -22 -503 0 c-384 0 -504 3 -512
13 -5 6 -76 138 -157 292 -81 154 -163 308 -182 343 l-34 62 1706 0 1705 0
-14 -23z m-4749 -4182 c54 -107 100 -195 103 -195 3 0 32 53 65 118 33 64 68
125 78 135 10 10 16 21 13 25 -2 4 8 30 22 57 19 35 34 51 51 53 18 3 22 0 18
-12 -4 -10 -1 -16 8 -16 8 0 15 7 15 15 0 9 9 15 25 15 14 0 25 -6 25 -12 0
-10 3 -10 9 0 11 18 46 11 46 -8 0 -19 24 -45 33 -35 4 4 1 10 -5 12 -7 3 -13
13 -13 24 0 13 7 19 24 19 20 0 24 -5 22 -24 -3 -22 -180 -375 -195 -386 -3
-3 -7 -12 -9 -20 -2 -8 -21 -46 -43 -83 -21 -38 -39 -73 -39 -78 0 -5 -7 -21
-16 -34 -16 -24 -20 -25 -135 -25 -68 0 -120 4 -124 10 -3 6 -1 10 4 10 19 0
12 22 -8 27 -28 7 -278 503 -259 514 16 10 -3 46 -22 41 -12 -3 -39 25 -40 41
0 4 56 7 125 7 l125 0 97 -195z m923 183 c0 -10 2 -10 8 -1 6 10 59 12 216 10
l208 -2 24 -30 c13 -16 27 -47 30 -67 4 -21 11 -38 16 -38 5 0 7 -85 5 -197
-3 -209 -10 -246 -56 -292 -29 -29 -140 -31 -142 -3 -1 16 -2 16 -6 0 -4 -17
-26 -18 -287 -18 -281 0 -283 0 -304 23 -44 47 -50 81 -51 293 -2 224 6 262
61 309 28 24 36 25 154 25 92 0 124 -3 124 -12z m807 -53 c1 -33 2 -135 2
-228 l1 -167 183 2 182 3 -3 194 c-2 124 0 191 6 187 6 -4 6 8 -1 29 -9 32 0
67 10 37 3 -6 9 -10 14 -6 5 3 9 -1 9 -8 1 -9 4 -8 13 3 10 13 31 16 99 17
l87 0 0 -150 c1 -104 -2 -155 -11 -165 -9 -11 -9 -16 0 -22 7 -4 11 -39 11
-96 0 -101 -13 -159 -35 -151 -7 3 -16 1 -19 -4 -3 -4 1 -10 7 -13 10 -3 8 -9
-5 -24 -16 -19 -31 -20 -309 -21 -219 -1 -294 2 -300 11 -6 9 -8 9 -8 0 0 -7
-9 -13 -20 -13 -11 0 -20 5 -20 10 0 7 -7 7 -21 -1 -33 -17 -63 3 -93 62 -26
53 -36 139 -16 139 6 0 10 9 10 19 0 11 -4 23 -10 26 -6 4 -10 81 -10 199 l0
193 123 -1 122 -1 2 -60z m1123 42 c0 -13 -6 -29 -12 -36 -11 -10 -9 -12 6 -9
13 2 23 15 29 37 l8 34 108 -5 c61 -3 121 -12 137 -19 40 -19 53 -60 30 -94
-21 -32 -45 -20 -27 13 10 19 8 21 -16 18 -16 -2 -29 -4 -31 -5 -1 0 7 -19 18
-41 l20 -40 -85 0 c-84 0 -85 0 -80 23 4 12 1 35 -4 50 -13 35 -36 36 -27 2 3
-14 9 -36 12 -49 6 -23 4 -25 -32 -23 -22 1 -42 7 -46 12 -5 6 -8 5 -8 -2 0
-17 -130 -16 -130 0 0 9 -2 9 -8 0 -4 -6 -34 -13 -67 -15 l-60 -3 -3 -152 -3
-153 56 0 c37 0 55 -4 56 -12 0 -10 2 -10 6 0 7 18 83 16 83 -3 0 -19 14 -19
30 0 13 16 64 16 89 1 8 -5 17 -3 22 5 6 10 9 11 9 2 0 -19 18 -15 22 5 2 9 1
30 -4 46 -4 16 -3 36 2 46 5 10 6 20 2 24 -10 10 -10 76 0 82 5 3 4 12 -3 20
-10 12 6 13 104 11 64 -2 120 -6 124 -10 4 -5 1 -17 -6 -29 -10 -16 -10 -22 0
-28 7 -5 9 -15 4 -26 -12 -27 -14 -74 -4 -74 13 0 11 -34 -3 -48 -10 -10 -10
-15 1 -22 12 -7 12 -15 -1 -57 -13 -39 -20 -48 -37 -46 -18 2 -21 -2 -19 -25
l3 -27 -297 -3 -296 -2 4 22 5 23 -17 -22 c-30 -42 -103 -16 -77 26 14 22 2
44 -22 39 -22 -4 -33 25 -34 95 -1 28 3 47 10 47 6 0 9 -9 6 -19 -6 -24 21
-37 30 -14 3 9 1 29 -4 44 -8 19 -8 28 -1 26 6 -1 13 4 15 11 3 7 -7 15 -26
18 -30 6 -31 8 -31 65 0 45 3 59 15 59 15 0 51 47 43 56 -7 7 -38 -7 -38 -17
0 -5 -5 -9 -11 -9 -18 0 -3 96 21 134 36 59 63 66 263 66 l177 0 0 -23z m630
-115 c0 -97 -4 -142 -12 -150 -10 -10 -10 -15 1 -21 11 -7 9 -10 -8 -16 -18
-5 -20 -10 -10 -21 6 -7 15 -11 20 -8 5 3 9 -60 9 -145 l0 -151 -39 0 c-31 0
-41 4 -46 20 -8 26 -25 26 -25 0 0 -18 -7 -20 -70 -20 l-70 0 1 150 c0 91 4
152 11 156 17 11 37 -19 44 -65 7 -42 6 -44 -14 -39 -31 8 -28 -15 3 -32 13
-7 23 -16 20 -19 -7 -12 13 -34 24 -27 6 4 9 11 6 16 -3 5 -7 25 -9 45 -2 31
0 35 22 35 23 0 24 -1 10 -17 -16 -18 -14 -43 3 -43 5 0 19 10 30 21 17 17 19
23 8 30 -11 8 -10 12 5 24 16 12 17 17 6 30 -18 21 -27 19 -45 -12 l-16 -28 6
28 c5 25 4 27 -14 18 -26 -15 -36 -14 -23 2 5 6 9 29 8 49 -1 29 -9 45 -35 69
-26 23 -36 27 -42 17 -5 -7 -9 39 -9 108 0 66 3 124 7 127 3 4 60 7 125 7
l118 0 0 -138z m539 -97 l-1 -236 -25 -10 c-13 -5 -40 -9 -59 -9 -19 0 -34 -4
-34 -10 0 -5 15 -10 33 -10 21 0 38 -7 47 -20 8 -11 20 -20 27 -20 9 0 13 -16
13 -50 l0 -50 -120 0 -120 0 0 115 0 115 -28 0 c-15 0 -33 5 -40 12 -8 8 -12
8 -12 1 0 -7 -36 -11 -100 -12 l-100 -2 0 61 c0 47 3 60 15 60 8 0 15 7 15 16
0 12 -3 14 -13 6 -10 -8 -13 -5 -15 14 l-2 24 139 0 c102 0 141 -3 144 -12 2
-7 8 -10 12 -5 5 4 3 13 -3 19 -21 21 -14 56 14 71 18 9 23 16 15 21 -7 4 -18
2 -26 -4 -13 -11 -15 -1 -15 68 l0 80 120 1 120 2 -1 -236z m153 221 c6 -8 8
-7 8 2 0 7 12 12 28 11 15 0 21 -3 15 -6 -20 -8 -15 -23 7 -23 11 0 20 -4 20
-10 0 -5 6 -7 14 -4 7 3 13 13 12 22 -1 12 8 18 27 20 15 2 27 -1 27 -7 0 -6
7 -11 15 -11 8 0 15 4 15 10 0 5 80 8 203 7 l202 -2 3 -84 c2 -56 -1 -88 -9
-95 -9 -8 -10 -6 -5 7 4 13 2 17 -6 14 -7 -2 -12 -10 -10 -16 2 -8 -10 -12
-35 -10 -21 1 -66 2 -100 1 l-63 -2 0 -159 c0 -153 -1 -159 -21 -164 -18 -5
-20 -11 -15 -33 6 -21 4 -25 -8 -21 -18 7 -20 -6 -6 -33 19 -35 3 -49 -56 -49
-30 1 -51 5 -48 10 3 5 0 9 -5 9 -6 0 -11 -4 -11 -10 0 -5 -16 -10 -35 -10
l-35 0 0 230 0 230 -30 0 c-22 0 -28 4 -24 15 4 10 0 15 -11 15 -11 0 -15 -5
-11 -15 3 -9 0 -15 -9 -15 -8 0 -15 8 -15 19 0 13 -10 20 -32 25 -31 6 -55 -3
-30 -11 26 -10 11 -30 -23 -31 l-35 -1 0 94 0 94 43 -1 c23 0 45 -5 49 -12z
m-992 -136 c0 -11 -4 -20 -9 -20 -5 0 -7 9 -4 20 3 11 7 20 9 20 2 0 4 -9 4
-20z m83 -136 c-3 -7 2 -21 12 -30 9 -9 13 -19 10 -22 -3 -4 -10 -1 -14 6 -4
7 -15 10 -24 6 -14 -5 -17 0 -17 29 0 30 3 34 19 30 12 -3 17 -11 14 -19z
m-863 -105 c0 -11 -4 -17 -10 -14 -5 3 -10 13 -10 21 0 8 5 14 10 14 6 0 10
-9 10 -21z m1617 -131 c-3 -8 -6 -5 -6 6 -1 11 2 17 5 13 3 -3 4 -12 1 -19z
m-3607 -483 l0 -105 -40 0 -40 0 0 105 0 105 40 0 40 0 0 -105z m239 43 l66
-63 3 38 c2 20 7 37 12 37 4 0 10 7 13 14 4 10 1 13 -9 9 -8 -3 -14 1 -14 10
0 10 10 15 35 15 l35 0 -1 -104 -1 -104 -36 0 c-32 0 -46 9 -104 67 l-68 67 0
-67 0 -67 -34 0 c-33 0 -34 2 -34 38 0 20 5 40 11 44 9 6 9 8 0 8 -9 0 -13 19
-13 60 l0 60 37 0 c31 0 46 -9 102 -62z m419 40 c-2 -17 -11 -24 -30 -26 -28
-3 -28 -4 -28 -83 l0 -79 -40 0 -40 0 0 80 0 80 -30 0 c-25 0 -30 4 -30 25 l0
25 101 0 c98 0 100 0 97 -22z m240 0 c-3 -20 -9 -23 -43 -23 -30 0 -41 -4 -43
-17 -3 -15 4 -18 37 -18 35 0 41 -3 41 -21 0 -11 -4 -18 -9 -14 -5 3 -13 0
-16 -5 -4 -6 -19 -11 -33 -10 -40 3 -45 1 -30 -12 26 -25 57 -38 63 -28 12 20
35 10 35 -15 0 -25 -1 -25 -80 -25 l-80 0 0 105 0 105 81 0 c78 0 80 -1 77
-22z m287 -3 c14 -13 25 -31 25 -40 0 -18 -35 -55 -52 -55 -7 0 5 -17 25 -38
20 -21 37 -41 37 -45 0 -4 -17 -7 -37 -7 -31 0 -44 7 -75 41 l-38 42 0 -42 c0
-40 -1 -41 -35 -41 l-35 0 0 105 0 105 80 0 c73 0 83 -3 105 -25z m223 2 c12
-13 19 -27 15 -32 -5 -4 -3 -5 3 -2 6 4 19 -2 29 -13 14 -16 16 -23 7 -32 -20
-20 -14 -38 11 -35 30 3 43 17 52 55 3 18 10 30 15 27 4 -3 11 6 14 19 3 13
13 26 21 30 13 4 15 -7 15 -70 0 -71 -1 -74 -19 -64 -13 6 -22 7 -26 0 -3 -5
6 -12 20 -16 18 -4 25 -13 25 -30 0 -21 -5 -24 -37 -24 -33 0 -46 8 -105 67
l-68 67 0 -37 c0 -20 -4 -37 -10 -37 -5 0 -10 -7 -10 -15 0 -8 5 -15 10 -15 6
0 10 -7 10 -15 0 -21 -66 -21 -74 1 -3 9 -6 49 -6 89 0 40 3 80 6 89 10 26 76
21 102 -7z m465 -15 c9 -21 17 -44 17 -50 0 -7 4 -12 8 -12 6 0 33 -45 60
-102 2 -5 -15 -8 -37 -8 -37 0 -42 3 -61 40 -11 21 -20 46 -20 54 0 7 -7 16
-15 20 -11 4 -23 -11 -45 -53 -28 -57 -30 -59 -69 -59 l-40 -1 42 85 c23 46
45 84 50 84 4 0 5 -4 2 -10 -3 -5 -1 -10 6 -10 7 0 9 10 6 30 -6 30 -6 30 36
30 40 0 44 -2 60 -38z m315 13 c-2 -13 -13 -22 -33 -25 l-30 -5 3 -78 3 -78
-38 3 -38 3 0 88 c0 80 -5 101 -19 78 -10 -16 -41 -5 -44 16 -3 19 2 20 98 19
95 -1 101 -2 98 -21z m152 -11 c0 -23 -4 -33 -11 -28 -6 3 -15 0 -20 -7 -14
-22 -11 -28 11 -22 18 5 20 0 20 -56 l0 -61 -35 0 c-30 0 -35 3 -35 23 0 13 5
28 12 35 9 9 9 12 0 12 -16 0 -15 32 1 49 10 11 10 13 0 7 -10 -5 -13 5 -13
37 0 43 1 44 35 45 34 1 35 0 35 -34z m162 -34 c-4 -70 -2 -72 33 -72 86 0 85
-1 85 42 l0 40 -50 0 c-39 0 -50 4 -50 16 0 8 5 12 10 9 6 -3 10 3 10 14 0 18
7 19 70 19 57 -1 73 -4 80 -19 16 -29 12 -142 -6 -167 -18 -25 -67 -32 -58 -7
4 8 2 15 -4 15 -5 0 -12 -7 -16 -15 -3 -10 -19 -15 -48 -15 -33 0 -39 3 -30
12 16 16 15 33 -1 19 -8 -6 -17 -8 -20 -4 -4 3 -7 -1 -7 -10 0 -26 -47 -22
-63 6 -17 28 -21 123 -6 160 9 21 18 27 43 27 l32 0 -4 -70z m378 45 c21 -20
25 -32 22 -61 l-4 -35 -24 22 -24 22 0 -67 0 -67 -37 3 c-33 3 -38 6 -39 28 0
14 4 33 9 44 6 13 5 21 -4 27 -10 6 -10 11 -1 22 7 7 9 17 5 21 -4 3 -8 20 -9
36 -2 29 -1 30 39 30 30 0 48 -7 67 -25z m180 -15 c0 -22 -6 -50 -12 -61 -10
-17 -10 -23 0 -26 18 -7 15 -34 -5 -49 -17 -13 -17 -13 0 -14 34 0 16 -20 -18
-20 -27 0 -45 9 -75 37 -22 20 -40 41 -40 47 0 7 3 6 8 -1 8 -12 32 -18 62
-15 12 2 15 11 12 37 -2 19 1 42 8 49 8 11 9 20 0 35 -10 19 -8 21 25 21 34 0
35 -1 35 -40z m250 25 c0 -8 4 -15 10 -15 5 0 7 8 4 18 -3 9 9 -10 26 -43 17
-33 26 -61 20 -63 -18 -6 -11 -22 10 -22 11 0 20 -3 21 -7 0 -5 2 -21 4 -36 4
-26 2 -28 -28 -25 -25 2 -34 9 -42 33 -5 17 -12 32 -16 35 -3 3 -12 16 -19 29
-12 24 -13 24 -27 5 -8 -10 -23 -38 -34 -61 -17 -41 -20 -43 -60 -43 l-42 0
19 21 c10 12 17 23 15 26 -2 2 13 39 33 82 36 72 40 77 72 79 25 2 34 -1 34
-13z m267 -20 c-1 -30 -4 -34 -20 -29 -16 5 -19 3 -14 -11 4 -9 7 -21 7 -27 0
-7 5 -6 14 1 12 10 15 7 14 -19 -1 -38 13 -49 58 -43 31 4 34 2 34 -21 0 -23
-4 -26 -35 -26 -19 0 -35 5 -35 10 0 6 -5 10 -11 10 -5 0 -7 -4 -4 -10 4 -6
-10 -10 -34 -10 l-41 0 0 105 0 105 34 0 c32 0 34 -2 33 -35z m-621 -82 c-4
-4 -11 -1 -16 7 -16 25 -11 35 7 17 9 -9 13 -20 9 -24z"/>
<path d="M1640 5650 c0 -5 5 -10 11 -10 5 0 7 5 4 10 -3 6 -8 10 -11 10 -2 0
-4 -4 -4 -10z"/>
<path d="M1690 5390 c0 -5 4 -10 9 -10 6 0 13 5 16 10 3 6 -1 10 -9 10 -9 0
-16 -4 -16 -10z"/>
<path d="M1354 5381 c4 -5 1 -12 -4 -14 -6 -3 -5 -4 2 -3 15 3 23 26 8 26 -6
0 -9 -4 -6 -9z"/>
<path d="M1620 5379 c0 -5 5 -7 10 -4 6 3 10 8 10 11 0 2 -4 4 -10 4 -5 0 -10
-5 -10 -11z"/>
<path d="M2110 4840 c0 -5 5 -10 11 -10 5 0 7 5 4 10 -3 6 -8 10 -11 10 -2 0
-4 -4 -4 -10z"/>
<path d="M2447 4246 c-3 -8 -3 -17 0 -20 7 -7 33 13 33 25 0 15 -27 10 -33 -5z"/>
<path d="M1650 4099 c0 -5 5 -7 10 -4 6 3 10 8 10 11 0 2 -4 4 -10 4 -5 0 -10
-5 -10 -11z"/>
<path d="M2640 4075 c0 -9 5 -15 11 -13 6 2 11 8 11 13 0 5 -5 11 -11 13 -6 2
-11 -4 -11 -13z"/>
<path d="M2610 4050 c0 -5 7 -10 16 -10 8 0 12 5 9 10 -3 6 -10 10 -16 10 -5
0 -9 -4 -9 -10z"/>
<path d="M1665 4030 c3 -5 11 -10 16 -10 6 0 7 5 4 10 -3 6 -11 10 -16 10 -6
0 -7 -4 -4 -10z"/>
<path d="M1900 3930 c0 -5 5 -10 10 -10 6 0 10 5 10 10 0 6 -4 10 -10 10 -5 0
-10 -4 -10 -10z"/>
<path d="M2180 3900 c0 -5 4 -10 9 -10 6 0 13 5 16 10 3 6 -1 10 -9 10 -9 0
-16 -4 -16 -10z"/>
<path d="M2577 3873 c-7 -14 13 -74 23 -68 16 10 12 75 -4 75 -8 0 -17 -3 -19
-7z"/>
<path d="M2675 3860 c-3 -5 1 -10 10 -10 9 0 13 5 10 10 -3 6 -8 10 -10 10 -2
0 -7 -4 -10 -10z"/>
<path d="M2110 3820 c0 -5 5 -10 10 -10 6 0 10 5 10 10 0 6 -4 10 -10 10 -5 0
-10 -4 -10 -10z"/>
<path d="M2135 3780 c3 -5 8 -10 11 -10 2 0 4 5 4 10 0 6 -5 10 -11 10 -5 0
-7 -4 -4 -10z"/>
<path d="M2580 3739 c0 -5 5 -7 10 -4 6 3 10 8 10 11 0 2 -4 4 -10 4 -5 0 -10
-5 -10 -11z"/>
<path d="M2170 3729 c0 -5 5 -7 10 -4 6 3 10 8 10 11 0 2 -4 4 -10 4 -5 0 -10
-5 -10 -11z"/>
<path d="M2753 3658 c-2 -18 0 -20 7 -8 12 18 13 30 2 30 -4 0 -9 -10 -9 -22z"/>
<path d="M2786 3665 c-3 -8 -1 -15 4 -15 13 0 22 18 11 24 -5 3 -11 -1 -15 -9z"/>
<path d="M2587 3633 c3 -7 9 -13 13 -13 4 0 10 6 13 13 3 7 -3 13 -13 13 -10
0 -16 -6 -13 -13z"/>
<path d="M2440 3529 c0 -5 5 -7 10 -4 6 3 10 8 10 11 0 2 -4 4 -10 4 -5 0 -10
-5 -10 -11z"/>
<path d="M2480 3500 c0 -5 5 -10 11 -10 5 0 7 5 4 10 -3 6 -8 10 -11 10 -2 0
-4 -4 -4 -10z"/>
<path d="M2468 3472 c-20 -4 -23 -17 -7 -28 12 -7 33 10 28 23 -2 5 -12 7 -21
5z"/>
<path d="M2620 3329 c0 -5 5 -7 10 -4 6 3 10 8 10 11 0 2 -4 4 -10 4 -5 0 -10
-5 -10 -11z"/>
<path d="M2120 3240 c0 -5 5 -10 11 -10 5 0 7 5 4 10 -3 6 -8 10 -11 10 -2 0
-4 -4 -4 -10z"/>
<path d="M2125 3021 c-3 -5 -1 -12 5 -16 5 -3 10 1 10 9 0 18 -6 21 -15 7z"/>
<path d="M2205 2957 c-4 -10 -5 -21 -1 -24 10 -10 18 4 13 24 -4 17 -4 17 -12
0z"/>
<path d="M2207 2878 c-7 -25 -3 -33 12 -23 13 8 15 45 2 45 -5 0 -11 -10 -14
-22z"/>
<path d="M2320 2861 c0 -5 5 -13 10 -16 6 -3 10 -2 10 4 0 5 -4 13 -10 16 -5
3 -10 2 -10 -4z"/>
<path d="M2236 2851 c-3 -5 1 -11 9 -15 8 -3 15 -1 15 4 0 13 -18 22 -24 11z"/>
<path d="M2930 5640 c0 -5 -7 -7 -15 -4 -8 4 -15 1 -15 -7 0 -7 3 -9 7 -6 3 4
12 2 20 -4 10 -9 13 -7 13 10 0 11 -2 21 -5 21 -3 0 -5 -4 -5 -10z"/>
<path d="M3345 5640 c-3 -5 -1 -10 4 -10 6 0 11 5 11 10 0 6 -2 10 -4 10 -3 0
-8 -4 -11 -10z"/>
<path d="M5510 5609 c0 -18 2 -19 15 -9 15 12 12 30 -6 30 -5 0 -9 -10 -9 -21z"/>
<path d="M3421 5574 c0 -11 3 -14 6 -6 3 7 2 16 -1 19 -3 4 -6 -2 -5 -13z"/>
<path d="M3007 5563 c-4 -3 -7 -11 -7 -17 0 -6 5 -5 12 2 6 6 9 14 7 17 -3 3
-9 2 -12 -2z"/>
<path d="M5515 5560 c-3 -5 -2 -10 4 -10 5 0 13 5 16 10 3 6 2 10 -4 10 -5 0
-13 -4 -16 -10z"/>
<path d="M2650 5539 c0 -5 5 -7 10 -4 6 3 10 8 10 11 0 2 -4 4 -10 4 -5 0 -10
-5 -10 -11z"/>
<path d="M2900 5540 c0 -5 5 -10 10 -10 6 0 10 5 10 10 0 6 -4 10 -10 10 -5 0
-10 -4 -10 -10z"/>
<path d="M3340 5540 c0 -5 7 -10 16 -10 8 0 12 5 9 10 -3 6 -10 10 -16 10 -5
0 -9 -4 -9 -10z"/>
<path d="M3604 5516 c13 -31 13 -36 0 -36 -7 0 -14 -7 -14 -15 0 -20 6 -19 41
6 29 21 38 39 18 39 -5 0 -7 -4 -4 -10 3 -5 -1 -10 -9 -10 -8 0 -16 11 -18 27
-2 14 -9 28 -16 31 -10 3 -10 -4 2 -32z"/>
<path d="M4725 5520 c-3 -5 -1 -10 4 -10 6 0 11 5 11 10 0 6 -2 10 -4 10 -3 0
-8 -4 -11 -10z"/>
<path d="M4600 5510 c0 -5 7 -10 16 -10 8 0 12 5 9 10 -3 6 -10 10 -16 10 -5
0 -9 -4 -9 -10z"/>
<path d="M3481 5480 c0 -8 4 -22 9 -30 12 -18 12 -2 0 25 -6 13 -9 15 -9 5z"/>
<path d="M4948 5466 c-26 -19 -22 -34 7 -28 16 3 25 11 25 23 0 22 -8 23 -32
5z"/>
<path d="M5390 5469 c0 -5 5 -7 10 -4 6 3 10 8 10 11 0 2 -4 4 -10 4 -5 0 -10
-5 -10 -11z"/>
<path d="M5410 5449 c0 -5 5 -7 10 -4 6 3 10 8 10 11 0 2 -4 4 -10 4 -5 0 -10
-5 -10 -11z"/>
<path d="M3850 5420 c0 -5 5 -10 11 -10 5 0 7 5 4 10 -3 6 -8 10 -11 10 -2 0
-4 -4 -4 -10z"/>
<path d="M3126 5392 c-3 -6 -1 -14 5 -17 14 -9 20 -2 10 14 -6 8 -11 9 -15 3z"/>
<path d="M4376 5384 c-8 -21 -8 -24 3 -24 12 0 22 28 12 35 -5 3 -12 -2 -15
-11z"/>
<path d="M3837 5376 c-3 -8 0 -17 8 -19 7 -3 15 3 18 14 6 22 -18 27 -26 5z"/>
<path d="M4311 5375 c2 -11 0 -26 -4 -32 -5 -7 -4 -13 2 -13 16 0 24 41 11 54
-9 8 -11 6 -9 -9z"/>
<path d="M4986 5372 c-3 -5 1 -9 9 -9 8 0 15 4 15 9 0 4 -4 8 -9 8 -6 0 -12
-4 -15 -8z"/>
<path d="M4085 5360 c3 -5 8 -10 11 -10 2 0 4 5 4 10 0 6 -5 10 -11 10 -5 0
-7 -4 -4 -10z"/>
<path d="M3600 5345 c0 -9 6 -12 15 -9 8 4 15 10 15 15 0 5 -7 9 -15 9 -8 0
-15 -7 -15 -15z"/>
<path d="M4585 5350 c-3 -5 -1 -10 4 -10 6 0 11 5 11 10 0 6 -2 10 -4 10 -3 0
-8 -4 -11 -10z"/>
<path d="M3475 5340 c-3 -5 -1 -10 4 -10 6 0 11 5 11 10 0 6 -2 10 -4 10 -3 0
-8 -4 -11 -10z"/>
<path d="M4652 5332 c4 -14 2 -22 -6 -22 -10 0 -13 -19 -7 -49 1 -2 9 3 19 12
10 10 22 14 25 10 4 -3 7 -1 7 5 0 7 -4 12 -10 12 -5 0 -10 9 -10 19 0 11 -5
23 -12 27 -8 5 -9 0 -6 -14z"/>
<path d="M3670 5331 c0 -6 5 -13 10 -16 6 -3 10 1 10 9 0 9 -4 16 -10 16 -5 0
-10 -4 -10 -9z"/>
<path d="M4896 5333 c-11 -11 -6 -23 9 -23 8 0 15 4 15 9 0 13 -16 22 -24 14z"/>
<path d="M3590 5281 c0 -12 5 -21 10 -21 6 0 10 6 10 14 0 8 -4 18 -10 21 -5
3 -10 -3 -10 -14z"/>
<path d="M3315 5280 c-3 -5 -1 -10 4 -10 6 0 11 5 11 10 0 6 -2 10 -4 10 -3 0
-8 -4 -11 -10z"/>
<path d="M3814 5279 c-3 -6 -1 -16 5 -22 8 -8 11 -5 11 11 0 24 -5 28 -16 11z"/>
<path d="M4355 5280 c-3 -5 1 -10 10 -10 9 0 13 5 10 10 -3 6 -8 10 -10 10 -2
0 -7 -4 -10 -10z"/>
<path d="M4430 5269 c0 -5 5 -7 10 -4 6 3 10 8 10 11 0 2 -4 4 -10 4 -5 0 -10
-5 -10 -11z"/>
<path d="M4705 5270 c3 -5 8 -10 11 -10 2 0 4 5 4 10 0 6 -5 10 -11 10 -5 0
-7 -4 -4 -10z"/>
<path d="M3200 5253 c0 -13 5 -23 10 -23 13 0 13 11 0 30 -8 12 -10 11 -10 -7z"/>
<path d="M4100 5244 c0 -8 5 -12 10 -9 6 4 8 11 5 16 -9 14 -15 11 -15 -7z"/>
<path d="M3090 5240 c0 -5 5 -10 11 -10 5 0 7 5 4 10 -3 6 -8 10 -11 10 -2 0
-4 -4 -4 -10z"/>
<path d="M4646 5231 c-4 -5 -2 -12 3 -15 5 -4 12 -2 15 3 4 5 2 12 -3 15 -5 4
-12 2 -15 -3z"/>
<path d="M3290 5226 c0 -2 7 -6 15 -10 8 -3 15 -1 15 4 0 6 -7 10 -15 10 -8 0
-15 -2 -15 -4z"/>
<path d="M3602 5210 c0 -14 2 -19 5 -12 2 6 2 18 0 25 -3 6 -5 1 -5 -13z"/>
<path d="M4276 5221 c-4 -6 -4 -11 1 -12 4 0 0 -3 -9 -7 -11 -4 -14 -12 -10
-19 6 -9 12 -8 24 6 9 10 12 24 8 31 -5 9 -9 9 -14 1z"/>
<path d="M4370 5219 c0 -5 5 -7 10 -4 6 3 10 8 10 11 0 2 -4 4 -10 4 -5 0 -10
-5 -10 -11z"/>
<path d="M4860 5210 c-12 -23 2 -27 19 -6 8 9 8 16 2 20 -6 4 -15 -3 -21 -14z"/>
<path d="M3121 5194 c0 -11 3 -14 6 -6 3 7 2 16 -1 19 -3 4 -6 -2 -5 -13z"/>
<path d="M4326 5191 c-4 -7 -5 -15 -2 -18 9 -9 19 4 14 18 -4 11 -6 11 -12 0z"/>
<path d="M3620 5174 c0 -8 5 -12 10 -9 6 3 10 10 10 16 0 5 -4 9 -10 9 -5 0
-10 -7 -10 -16z"/>
<path d="M4905 5180 c-3 -5 1 -10 10 -10 9 0 13 5 10 10 -3 6 -8 10 -10 10 -2
0 -7 -4 -10 -10z"/>
<path d="M3586 5172 c-7 -12 4 -52 14 -52 5 0 8 14 8 30 -1 29 -11 39 -22 22z"/>
<path d="M4505 5170 c3 -5 8 -10 11 -10 2 0 4 5 4 10 0 6 -5 10 -11 10 -5 0
-7 -4 -4 -10z"/>
<path d="M3901 5151 c-8 -6 -9 -11 -3 -15 6 -3 14 -1 17 5 9 14 2 20 -14 10z"/>
<path d="M4890 5146 c0 -18 23 -27 41 -15 11 7 11 9 -3 9 -10 0 -18 5 -18 10
0 6 -4 10 -10 10 -5 0 -10 -6 -10 -14z"/>
<path d="M3470 5129 c0 -5 5 -7 10 -4 6 3 10 8 10 11 0 2 -4 4 -10 4 -5 0 -10
-5 -10 -11z"/>
<path d="M3950 5130 c0 -5 5 -10 11 -10 5 0 7 5 4 10 -3 6 -8 10 -11 10 -2 0
-4 -4 -4 -10z"/>
<path d="M4596 5132 c-4 -7 -6 -14 -5 -15 2 -2 12 -9 22 -16 15 -12 17 -11 17
3 0 10 -4 15 -9 11 -5 -3 -11 3 -13 12 -3 14 -5 15 -12 5z"/>
<path d="M2999 5093 c-1 -10 0 -26 1 -37 1 -10 -4 -22 -11 -27 -18 -11 -6 -21
15 -13 11 4 16 19 16 50 0 41 -19 65 -21 27z"/>
<path d="M3592 5059 c-2 -36 1 -50 9 -47 17 6 23 98 6 98 -7 0 -13 -19 -15
-51z"/>
<path d="M4500 5100 c0 -5 5 -10 10 -10 6 0 10 5 10 10 0 6 -4 10 -10 10 -5 0
-10 -4 -10 -10z"/>
<path d="M4870 5095 c-8 -9 -8 -15 -2 -15 12 0 26 19 19 26 -2 2 -10 -2 -17
-11z"/>
<path d="M4363 5085 c0 -8 4 -15 9 -15 4 0 8 4 8 9 0 6 -4 12 -8 15 -5 3 -9
-1 -9 -9z"/>
<path d="M4680 5086 c0 -9 5 -16 10 -16 6 0 10 4 10 9 0 6 -4 13 -10 16 -5 3
-10 -1 -10 -9z"/>
<path d="M2695 5080 c3 -5 8 -10 11 -10 2 0 4 5 4 10 0 6 -5 10 -11 10 -5 0
-7 -4 -4 -10z"/>
<path d="M3989 5057 c7 -7 14 -8 21 -1 6 6 2 10 -12 11 -16 2 -18 -1 -9 -10z"/>
<path d="M4630 5049 c0 -5 5 -7 10 -4 6 3 10 8 10 11 0 2 -4 4 -10 4 -5 0 -10
-5 -10 -11z"/>
<path d="M4710 5050 c19 -13 30 -13 30 0 0 6 -10 10 -22 10 -19 0 -20 -2 -8
-10z"/>
<path d="M4245 5030 c3 -5 8 -10 11 -10 2 0 4 5 4 10 0 6 -5 10 -11 10 -5 0
-7 -4 -4 -10z"/>
<path d="M4370 5030 c0 -5 5 -10 11 -10 5 0 7 5 4 10 -3 6 -8 10 -11 10 -2 0
-4 -4 -4 -10z"/>
<path d="M4590 5024 c0 -8 5 -12 10 -9 6 4 8 11 5 16 -9 14 -15 11 -15 -7z"/>
<path d="M4065 5010 c3 -5 10 -10 16 -10 5 0 9 5 9 10 0 6 -7 10 -16 10 -8 0
-12 -4 -9 -10z"/>
<path d="M4280 4995 c0 -8 5 -15 10 -15 6 0 10 7 10 15 0 8 -4 15 -10 15 -5 0
-10 -7 -10 -15z"/>
<path d="M4385 4990 c-3 -5 -3 -15 1 -21 6 -11 23 6 24 24 0 10 -18 9 -25 -3z"/>
<path d="M4540 4989 c0 -5 5 -7 10 -4 6 3 10 8 10 11 0 2 -4 4 -10 4 -5 0 -10
-5 -10 -11z"/>
<path d="M3910 4979 c0 -5 5 -7 10 -4 6 3 10 8 10 11 0 2 -4 4 -10 4 -5 0 -10
-5 -10 -11z"/>
<path d="M4645 4960 c3 -5 8 -10 11 -10 2 0 4 5 4 10 0 6 -5 10 -11 10 -5 0
-7 -4 -4 -10z"/>
<path d="M4097 4913 c-4 -3 -7 -11 -7 -17 0 -6 5 -5 12 2 6 6 9 14 7 17 -3 3
-9 2 -12 -2z"/>
<path d="M4080 4870 c0 -5 5 -10 10 -10 6 0 10 5 10 10 0 6 -4 10 -10 10 -5 0
-10 -4 -10 -10z"/>
<path d="M4122 4860 c-16 -25 -15 -30 2 -30 19 0 25 11 17 32 -6 17 -7 16 -19
-2z"/>
<path d="M4705 4831 c-3 -5 -1 -12 4 -15 5 -3 11 1 15 9 6 16 -9 21 -19 6z"/>
<path d="M4805 4820 c3 -5 10 -10 16 -10 5 0 9 5 9 10 0 6 -7 10 -16 10 -8 0
-12 -4 -9 -10z"/>
<path d="M3866 4787 c3 -10 9 -15 12 -12 3 3 0 11 -7 18 -10 9 -11 8 -5 -6z"/>
<path d="M4330 4786 c0 -8 4 -17 9 -20 10 -7 23 19 14 28 -11 11 -23 6 -23 -8z"/>
<path d="M4675 4790 c-3 -5 -2 -10 4 -10 5 0 13 5 16 10 3 6 2 10 -4 10 -5 0
-13 -4 -16 -10z"/>
<path d="M4781 4764 c0 -11 3 -14 6 -6 3 7 2 16 -1 19 -3 4 -6 -2 -5 -13z"/>
<path d="M4798 4751 c-14 -26 -15 -31 -2 -42 18 -15 32 -3 16 13 -9 9 -7 17
10 35 15 16 17 23 7 23 -8 0 -22 -13 -31 -29z"/>
<path d="M4670 4760 c0 -5 7 -10 16 -10 8 0 12 5 9 10 -3 6 -10 10 -16 10 -5
0 -9 -4 -9 -10z"/>
<path d="M4560 4740 c0 -5 5 -10 11 -10 5 0 7 5 4 10 -3 6 -8 10 -11 10 -2 0
-4 -4 -4 -10z"/>
<path d="M4400 4729 c0 -5 5 -7 10 -4 6 3 10 8 10 11 0 2 -4 4 -10 4 -5 0 -10
-5 -10 -11z"/>
<path d="M3964 4689 c-3 -6 0 -15 7 -20 22 -14 29 -11 29 11 0 21 -24 27 -36
9z"/>
<path d="M4240 4685 c0 -8 5 -15 10 -15 6 0 10 7 10 15 0 8 -4 15 -10 15 -5 0
-10 -7 -10 -15z"/>
<path d="M4530 4681 c-6 -12 -6 -22 -1 -26 10 -6 14 -1 24 28 9 23 -10 22 -23
-2z"/>
<path d="M4036 4674 c-10 -25 -1 -27 19 -4 15 17 16 20 3 20 -9 0 -19 -7 -22
-16z"/>
<path d="M4490 4682 c0 -4 4 -13 9 -20 7 -11 9 -11 14 1 3 9 -1 18 -9 21 -8 3
-14 2 -14 -2z"/>
<path d="M4805 4662 c-3 -8 -3 -17 0 -20 3 -3 5 -2 5 3 0 4 6 2 14 -4 11 -9
15 -7 19 8 6 24 -29 37 -38 13z"/>
<path d="M4460 4651 c0 -6 5 -13 10 -16 6 -3 10 1 10 9 0 9 -4 16 -10 16 -5 0
-10 -4 -10 -9z"/>
<path d="M4700 4650 c0 -5 5 -10 11 -10 5 0 7 5 4 10 -3 6 -8 10 -11 10 -2 0
-4 -4 -4 -10z"/>
<path d="M4650 4640 c0 -5 5 -10 10 -10 6 0 10 -6 10 -14 0 -16 27 -29 41 -20
5 3 9 13 9 22 0 15 -2 15 -10 2 -9 -13 -13 -12 -29 8 -21 24 -31 28 -31 12z"/>
<path d="M4590 4630 c0 -5 5 -10 10 -10 6 0 10 5 10 10 0 6 -4 10 -10 10 -5 0
-10 -4 -10 -10z"/>
<path d="M4620 4601 c0 -14 18 -23 31 -15 8 4 7 9 -2 15 -18 11 -29 11 -29 0z"/>
<path d="M4580 4574 c0 -8 5 -12 10 -9 6 3 10 10 10 16 0 5 -4 9 -10 9 -5 0
-10 -7 -10 -16z"/>
<path d="M4935 4580 c3 -5 8 -10 11 -10 2 0 4 5 4 10 0 6 -5 10 -11 10 -5 0
-7 -4 -4 -10z"/>
<path d="M4150 4550 c0 -5 5 -10 10 -10 6 0 10 5 10 10 0 6 -4 10 -10 10 -5 0
-10 -4 -10 -10z"/>
<path d="M4890 4550 c0 -5 5 -10 10 -10 6 0 10 5 10 10 0 6 -4 10 -10 10 -5 0
-10 -4 -10 -10z"/>
<path d="M4650 4529 c0 -11 5 -17 10 -14 6 3 10 13 10 21 0 8 -4 14 -10 14 -5
0 -10 -9 -10 -21z"/>
<path d="M4707 4543 c-4 -3 -7 -11 -7 -17 0 -6 5 -5 12 2 6 6 9 14 7 17 -3 3
-9 2 -12 -2z"/>
<path d="M4107 4519 c6 -6 9 -17 6 -25 -3 -8 2 -12 15 -11 30 2 8 46 -22 47
-6 0 -5 -5 1 -11z"/>
<path d="M4885 4510 c3 -5 8 -10 11 -10 2 0 4 5 4 10 0 6 -5 10 -11 10 -5 0
-7 -4 -4 -10z"/>
<path d="M3942 4498 c6 -18 28 -21 28 -4 0 9 -7 16 -16 16 -9 0 -14 -5 -12
-12z"/>
<path d="M4035 4500 c-3 -5 -1 -10 4 -10 6 0 11 5 11 10 0 6 -2 10 -4 10 -3 0
-8 -4 -11 -10z"/>
<path d="M4433 4495 c-7 -8 -9 -16 -4 -19 5 -3 12 1 15 10 8 22 4 25 -11 9z"/>
<path d="M4013 4473 c-7 -2 -13 -11 -13 -19 0 -11 5 -11 25 -2 39 18 28 38
-12 21z"/>
<path d="M4077 4462 c1 -8 3 -16 3 -18 0 -11 19 -2 24 12 4 11 2 15 -8 11 -8
-3 -17 -3 -19 1 -2 4 -2 1 0 -6z"/>
<path d="M3645 4450 c4 -6 11 -8 16 -5 14 9 11 15 -7 15 -8 0 -12 -5 -9 -10z"/>
<path d="M3747 4411 c3 -12 11 -17 19 -14 18 7 13 27 -9 31 -11 2 -14 -2 -10
-17z"/>
<path d="M4577 4378 c-8 -28 -1 -35 21 -22 22 14 22 38 1 42 -10 2 -19 -6 -22
-20z"/>
<path d="M4070 4371 c0 -10 7 -24 15 -31 12 -10 15 -10 15 3 0 23 -11 47 -21
47 -5 0 -9 -8 -9 -19z"/>
<path d="M4350 4360 c0 -5 5 -10 10 -10 6 0 10 5 10 10 0 6 -4 10 -10 10 -5 0
-10 -4 -10 -10z"/>
<path d="M4697 4350 c-7 -27 -1 -39 12 -24 5 5 5 18 2 28 -7 18 -8 18 -14 -4z"/>
<path d="M3800 4349 c0 -5 5 -7 10 -4 6 3 10 8 10 11 0 2 -4 4 -10 4 -5 0 -10
-5 -10 -11z"/>
<path d="M4022 4338 c6 -18 28 -21 28 -4 0 9 -7 16 -16 16 -9 0 -14 -5 -12
-12z"/>
<path d="M4346 4311 c-7 -10 43 -25 52 -16 7 7 -18 25 -35 25 -6 0 -14 -4 -17
-9z"/>
<path d="M4656 4312 c-2 -4 -1 -14 5 -22 7 -12 9 -10 9 8 0 23 -5 28 -14 14z"/>
<path d="M4535 4290 c3 -5 8 -10 11 -10 2 0 4 5 4 10 0 6 -5 10 -11 10 -5 0
-7 -4 -4 -10z"/>
<path d="M4500 4279 c0 -5 5 -7 10 -4 6 3 10 8 10 11 0 2 -4 4 -10 4 -5 0 -10
-5 -10 -11z"/>
<path d="M4130 4253 c0 -22 2 -25 10 -13 13 20 13 40 0 40 -5 0 -10 -12 -10
-27z"/>
<path d="M3907 4263 c-13 -12 -7 -23 13 -23 13 0 18 5 14 15 -7 16 -17 19 -27
8z"/>
<path d="M3840 4223 c0 -5 4 -15 10 -23 11 -18 25 -7 17 15 -6 15 -27 21 -27
8z"/>
<path d="M4430 4214 c0 -8 10 -14 26 -14 28 0 25 15 -6 23 -13 3 -20 0 -20 -9z"/>
<path d="M3903 4205 c-3 -9 -3 -19 1 -22 7 -7 36 16 36 28 0 15 -30 10 -37 -6z"/>
<path d="M4035 4210 c-3 -5 -1 -10 4 -10 6 0 11 5 11 10 0 6 -2 10 -4 10 -3 0
-8 -4 -11 -10z"/>
<path d="M4330 4190 c0 -5 5 -10 10 -10 6 0 10 5 10 10 0 6 -4 10 -10 10 -5 0
-10 -4 -10 -10z"/>
<path d="M4165 4180 c-3 -5 -1 -10 4 -10 6 0 11 5 11 10 0 6 -2 10 -4 10 -3 0
-8 -4 -11 -10z"/>
<path d="M3850 4168 c0 -18 18 -34 28 -24 3 4 -2 14 -11 23 -16 16 -17 16 -17
1z"/>
<path d="M4464 4172 c3 -5 0 -13 -6 -15 -8 -3 -6 -6 5 -6 19 -1 23 14 5 25 -6
4 -8 3 -4 -4z"/>
<path d="M3780 4130 c0 -5 7 -10 16 -10 8 0 12 5 9 10 -3 6 -10 10 -16 10 -5
0 -9 -4 -9 -10z"/>
<path d="M3817 4113 c-4 -3 -7 -11 -7 -17 0 -6 5 -5 12 2 6 6 9 14 7 17 -3 3
-9 2 -12 -2z"/>
<path d="M4135 4111 c-6 -11 9 -23 19 -14 9 9 7 23 -3 23 -6 0 -12 -4 -16 -9z"/>
<path d="M4346 4104 c-8 -22 1 -31 16 -16 9 9 9 15 1 23 -7 7 -12 5 -17 -7z"/>
<path d="M3756 4067 c3 -10 9 -15 12 -12 3 3 0 11 -7 18 -10 9 -11 8 -5 -6z"/>
<path d="M4355 4051 c-3 -5 -1 -12 5 -16 5 -3 10 1 10 9 0 18 -6 21 -15 7z"/>
<path d="M4275 4030 c3 -5 8 -10 11 -10 2 0 4 5 4 10 0 6 -5 10 -11 10 -5 0
-7 -4 -4 -10z"/>
<path d="M4210 4009 c0 -5 5 -7 10 -4 6 3 10 8 10 11 0 2 -4 4 -10 4 -5 0 -10
-5 -10 -11z"/>
<path d="M4500 4010 c0 -5 5 -10 11 -10 5 0 7 5 4 10 -3 6 -8 10 -11 10 -2 0
-4 -4 -4 -10z"/>
<path d="M4500 3970 c0 -5 5 -10 10 -10 6 0 10 5 10 10 0 6 -4 10 -10 10 -5 0
-10 -4 -10 -10z"/>
<path d="M4260 3954 c0 -8 5 -12 10 -9 6 4 8 11 5 16 -9 14 -15 11 -15 -7z"/>
<path d="M3735 3949 c-4 -6 -5 -13 -2 -16 7 -7 27 6 27 18 0 12 -17 12 -25 -2z"/>
<path d="M4455 3951 c-3 -5 -1 -12 5 -16 5 -3 10 1 10 9 0 18 -6 21 -15 7z"/>
<path d="M4350 3942 c-20 -7 -30 -23 -29 -47 0 -17 2 -15 15 8 8 15 19 25 24
22 5 -3 11 -1 14 4 8 13 -5 20 -24 13z"/>
<path d="M4020 3928 c0 -11 12 -10 30 2 12 7 10 9 -8 7 -12 0 -22 -5 -22 -9z"/>
<path d="M4125 3860 c-3 -5 -1 -10 4 -10 6 0 11 5 11 10 0 6 -2 10 -4 10 -3 0
-8 -4 -11 -10z"/>
<path d="M3704 3815 c1 -19 6 -35 11 -35 7 0 9 15 7 35 -5 45 -19 45 -18 0z"/>
<path d="M4090 3836 c0 -9 5 -16 10 -16 6 0 10 4 10 9 0 6 -4 13 -10 16 -5 3
-10 -1 -10 -9z"/>
<path d="M3586 3803 c-4 -9 -2 -21 4 -27 5 -5 10 -21 10 -35 1 -25 1 -25 15
-7 10 13 12 23 5 30 -5 5 -10 18 -10 27 0 24 -17 33 -24 12z"/>
<path d="M3715 3750 c3 -5 8 -10 11 -10 2 0 4 5 4 10 0 6 -5 10 -11 10 -5 0
-7 -4 -4 -10z"/>
<path d="M3630 3716 c0 -9 5 -16 10 -16 6 0 10 4 10 9 0 6 -4 13 -10 16 -5 3
-10 -1 -10 -9z"/>
<path d="M3420 3610 c0 -5 5 -10 10 -10 6 0 10 5 10 10 0 6 -4 10 -10 10 -5 0
-10 -4 -10 -10z"/>
<path d="M4010 3610 c0 -5 5 -10 10 -10 6 0 10 5 10 10 0 6 -4 10 -10 10 -5 0
-10 -4 -10 -10z"/>
<path d="M3200 3591 c0 -6 5 -13 10 -16 6 -3 10 1 10 9 0 9 -4 16 -10 16 -5 0
-10 -4 -10 -9z"/>
<path d="M3417 3544 c-8 -8 1 -24 14 -24 5 0 9 7 9 15 0 15 -12 20 -23 9z"/>
<path d="M3995 3490 c-3 -5 -1 -10 4 -10 6 0 11 5 11 10 0 6 -2 10 -4 10 -3 0
-8 -4 -11 -10z"/>
<path d="M3620 3443 c0 -23 5 -33 15 -33 8 0 15 5 15 10 0 6 -5 10 -11 10 -5
0 -8 4 -5 8 2 4 1 14 -5 22 -6 11 -9 6 -9 -17z"/>
<path d="M3950 3399 c0 -5 5 -7 10 -4 6 3 10 8 10 11 0 2 -4 4 -10 4 -5 0 -10
-5 -10 -11z"/>
<path d="M3350 3376 c0 -9 5 -16 10 -16 6 0 10 4 10 9 0 6 -4 13 -10 16 -5 3
-10 -1 -10 -9z"/>
<path d="M3630 3375 c7 -8 16 -12 21 -9 13 8 1 24 -18 24 -13 0 -13 -3 -3 -15z"/>
<path d="M3305 3369 c-9 -14 -2 -20 14 -10 8 6 9 11 3 15 -6 3 -14 1 -17 -5z"/>
<path d="M3790 3370 c0 -5 7 -7 15 -4 8 4 15 8 15 10 0 2 -7 4 -15 4 -8 0 -15
-4 -15 -10z"/>
<path d="M4020 3359 c0 -5 5 -7 10 -4 6 3 10 8 10 11 0 2 -4 4 -10 4 -5 0 -10
-5 -10 -11z"/>
<path d="M3272 3317 c13 -38 28 -58 28 -36 0 8 -5 20 -11 26 -7 7 -3 10 15 8
18 -2 26 2 26 12 0 8 -6 13 -12 10 -7 -2 -23 -1 -35 4 -21 8 -21 6 -11 -24z"/>
<path d="M3636 3324 c-4 -15 -2 -32 3 -37 7 -7 11 -7 12 -1 1 5 3 21 5 37 4
35 -12 35 -20 1z"/>
<path d="M3715 3311 c-3 -5 -1 -12 5 -16 5 -3 10 1 10 9 0 18 -6 21 -15 7z"/>
<path d="M4150 3269 c0 -5 5 -7 10 -4 6 3 10 8 10 11 0 2 -4 4 -10 4 -5 0 -10
-5 -10 -11z"/>
<path d="M3990 3240 c0 -5 5 -10 11 -10 5 0 7 5 4 10 -3 6 -8 10 -11 10 -2 0
-4 -4 -4 -10z"/>
<path d="M3240 3236 c0 -2 7 -6 15 -10 8 -3 15 -1 15 4 0 6 -7 10 -15 10 -8 0
-15 -2 -15 -4z"/>
<path d="M3000 3215 c0 -11 -3 -30 -6 -42 -4 -13 -2 -23 4 -23 14 0 22 39 12
63 -8 21 -9 21 -10 2z"/>
<path d="M3816 3195 c-4 -11 1 -15 17 -15 13 0 28 -5 35 -12 8 -8 12 -9 12 -1
0 16 -28 43 -45 43 -7 0 -15 -7 -19 -15z"/>
<path d="M3255 3170 c3 -5 8 -10 11 -10 2 0 4 5 4 10 0 6 -5 10 -11 10 -5 0
-7 -4 -4 -10z"/>
<path d="M3650 3120 c0 -5 5 -10 11 -10 5 0 7 5 4 10 -3 6 -8 10 -11 10 -2 0
-4 -4 -4 -10z"/>
<path d="M3203 3075 c-3 -9 -3 -18 0 -21 9 -9 27 6 27 22 0 19 -19 18 -27 -1z"/>
<path d="M3340 3078 c0 -7 -3 -23 -6 -35 -7 -25 9 -31 30 -11 9 9 10 18 2 35
-12 25 -26 31 -26 11z"/>
<path d="M3155 3070 c-8 -14 3 -30 21 -30 16 0 16 2 8 24 -7 18 -20 21 -29 6z"/>
<path d="M3285 3071 c-3 -5 -1 -12 5 -16 5 -3 10 1 10 9 0 18 -6 21 -15 7z"/>
<path d="M3405 3072 c-11 -12 -4 -24 11 -18 12 4 15 2 10 -9 -3 -8 -2 -15 2
-15 10 0 32 22 32 31 0 8 -48 18 -55 11z"/>
<path d="M3760 3070 c0 -5 7 -10 16 -10 8 0 12 5 9 10 -3 6 -10 10 -16 10 -5
0 -9 -4 -9 -10z"/>
<path d="M3650 3059 c0 -5 5 -7 10 -4 6 3 10 8 10 11 0 2 -4 4 -10 4 -5 0 -10
-5 -10 -11z"/>
<path d="M3720 3060 c0 -5 4 -10 9 -10 6 0 13 5 16 10 3 6 -1 10 -9 10 -9 0
-16 -4 -16 -10z"/>
<path d="M3100 3030 c0 -5 5 -10 11 -10 5 0 7 5 4 10 -3 6 -8 10 -11 10 -2 0
-4 -4 -4 -10z"/>
<path d="M3262 3031 c-11 -7 -11 -9 2 -14 10 -4 16 -1 16 8 0 17 -1 17 -18 6z"/>
<path d="M3660 3015 c0 -8 4 -15 9 -15 5 0 11 7 15 15 3 9 0 15 -9 15 -8 0
-15 -7 -15 -15z"/>
<path d="M3160 2999 c0 -18 -4 -20 -32 -14 -31 6 -32 5 -14 -10 11 -8 25 -15
32 -15 16 0 45 40 38 52 -10 15 -24 8 -24 -13z"/>
<path d="M3400 3001 c-15 -30 -12 -33 15 -15 14 9 22 20 19 25 -9 15 -23 10
-34 -10z"/>
<path d="M3630 3000 c0 -5 5 -10 11 -10 5 0 7 5 4 10 -3 6 -8 10 -11 10 -2 0
-4 -4 -4 -10z"/>
<path d="M3200 2986 c0 -9 7 -16 16 -16 9 0 14 5 12 12 -6 18 -28 21 -28 4z"/>
<path d="M3353 2983 c-20 -7 -15 -23 7 -23 11 0 20 4 20 9 0 13 -12 19 -27 14z"/>
<path d="M3255 2970 c-3 -5 -1 -10 4 -10 6 0 11 5 11 10 0 6 -2 10 -4 10 -3 0
-8 -4 -11 -10z"/>
<path d="M3500 2964 c0 -8 5 -12 10 -9 6 4 8 11 5 16 -9 14 -15 11 -15 -7z"/>
<path d="M3612 2960 c9 -13 14 -16 20 -7 4 6 2 15 -5 19 -21 14 -28 9 -15 -12z"/>
<path d="M3110 2945 c0 -8 2 -15 4 -15 2 0 6 7 10 15 3 8 1 15 -4 15 -6 0 -10
-7 -10 -15z"/>
<path d="M3500 2930 c0 -5 5 -10 11 -10 5 0 7 5 4 10 -3 6 -8 10 -11 10 -2 0
-4 -4 -4 -10z"/>
<path d="M3690 2896 c0 -14 5 -26 10 -26 6 0 10 9 10 19 0 11 -4 23 -10 26 -6
4 -10 -5 -10 -19z"/>
<path d="M3370 2900 c0 -5 5 -10 10 -10 6 0 10 5 10 10 0 6 -4 10 -10 10 -5 0
-10 -4 -10 -10z"/>
<path d="M3235 2870 c3 -5 10 -10 16 -10 5 0 9 5 9 10 0 6 -7 10 -16 10 -8 0
-12 -4 -9 -10z"/>
<path d="M3035 2850 c-3 -5 -1 -10 4 -10 6 0 11 5 11 10 0 6 -2 10 -4 10 -3 0
-8 -4 -11 -10z"/>
<path d="M3707 2804 c-4 -4 -7 -14 -7 -23 0 -11 3 -12 11 -4 6 6 10 16 7 23
-2 6 -7 8 -11 4z"/>
<path d="M2815 2780 c4 -6 11 -8 16 -5 14 9 11 15 -7 15 -8 0 -12 -5 -9 -10z"/>
<path d="M3520 2780 c0 -5 5 -10 10 -10 6 0 10 5 10 10 0 6 -4 10 -10 10 -5 0
-10 -4 -10 -10z"/>
<path d="M2970 2773 c0 -10 47 -32 54 -26 8 8 -21 33 -38 33 -9 0 -16 -3 -16
-7z"/>
<path d="M2810 2740 c0 -5 9 -10 19 -10 11 0 23 5 26 10 4 6 -5 10 -19 10 -14
0 -26 -4 -26 -10z"/>
<path d="M3000 2705 c0 -8 5 -15 10 -15 6 0 10 7 10 15 0 8 -4 15 -10 15 -5 0
-10 -7 -10 -15z"/>
<path d="M2905 2663 c0 -31 4 -38 20 -38 15 0 19 6 17 25 -4 37 -10 50 -24 50
-8 0 -13 -14 -13 -37z"/>
<path d="M3390 2681 c0 -6 5 -13 10 -16 6 -3 10 1 10 9 0 9 -4 16 -10 16 -5 0
-10 -4 -10 -9z"/>
<path d="M3058 2663 c7 -3 16 -2 19 1 4 3 -2 6 -13 5 -11 0 -14 -3 -6 -6z"/>
<path d="M2825 2647 c-4 -10 -5 -21 -1 -24 10 -10 18 4 13 24 -4 17 -4 17 -12
0z"/>
<path d="M3346 2651 c-3 -5 0 -11 8 -14 15 -6 26 1 26 15 0 11 -27 10 -34 -1z"/>
<path d="M3590 2650 c0 -5 7 -10 15 -10 8 0 15 5 15 10 0 6 -7 10 -15 10 -8 0
-15 -4 -15 -10z"/>
<path d="M3397 2620 c-3 -11 1 -33 9 -48 14 -27 18 -20 14 28 -2 34 -16 46
-23 20z"/>
<path d="M3040 2620 c0 -5 5 -10 10 -10 6 0 10 5 10 10 0 6 -4 10 -10 10 -5 0
-10 -4 -10 -10z"/>
<path d="M3216 2615 c-3 -8 -2 -15 3 -15 5 0 14 7 21 15 10 12 10 15 -3 15 -8
0 -17 -7 -21 -15z"/>
<path d="M3560 2620 c0 -5 5 -10 10 -10 6 0 10 5 10 10 0 6 -4 10 -10 10 -5 0
-10 -4 -10 -10z"/>
<path d="M3436 2605 c-3 -10 -2 -23 4 -29 15 -15 24 1 13 26 -9 20 -10 20 -17
3z"/>
<path d="M3340 2600 c0 -5 5 -10 10 -10 6 0 10 5 10 10 0 6 -4 10 -10 10 -5 0
-10 -4 -10 -10z"/>
<path d="M3605 2600 c-3 -5 -1 -10 4 -10 6 0 11 5 11 10 0 6 -2 10 -4 10 -3 0
-8 -4 -11 -10z"/>
<path d="M2975 2570 c3 -5 8 -10 11 -10 2 0 4 5 4 10 0 6 -5 10 -11 10 -5 0
-7 -4 -4 -10z"/>
<path d="M3060 2571 c0 -6 5 -13 10 -16 6 -3 10 1 10 9 0 9 -4 16 -10 16 -5 0
-10 -4 -10 -9z"/>
<path d="M2631 2544 c0 -11 3 -14 6 -6 3 7 2 16 -1 19 -3 4 -6 -2 -5 -13z"/>
<path d="M2678 2532 c-4 -12 -2 -25 4 -28 16 -10 22 4 11 28 l-10 22 -5 -22z"/>
<path d="M3690 2542 c0 -5 7 -13 16 -16 10 -4 14 -1 12 6 -5 15 -28 23 -28 10z"/>
<path d="M2930 2532 c0 -12 19 -26 26 -19 2 2 -2 10 -11 17 -9 8 -15 8 -15 2z"/>
<path d="M2850 2520 c0 -5 4 -10 9 -10 6 0 13 5 16 10 3 6 -1 10 -9 10 -9 0
-16 -4 -16 -10z"/>
<path d="M3292 2510 c-7 -11 -9 -20 -4 -20 10 0 32 22 32 32 0 15 -15 8 -28
-12z"/>
<path d="M2970 2500 c0 -5 5 -10 11 -10 5 0 7 5 4 10 -3 6 -8 10 -11 10 -2 0
-4 -4 -4 -10z"/>
<path d="M3220 2501 c0 -5 -3 -18 -6 -28 -5 -16 -4 -16 10 1 18 23 20 36 6 36
-5 0 -10 -4 -10 -9z"/>
<path d="M3351 2494 c0 -11 3 -14 6 -6 3 7 2 16 -1 19 -3 4 -6 -2 -5 -13z"/>
<path d="M3230 2459 c-7 -11 -9 -24 -5 -27 9 -9 40 13 43 32 5 23 -25 20 -38
-5z"/>
<path d="M3375 2470 c3 -5 8 -10 11 -10 2 0 4 5 4 10 0 6 -5 10 -11 10 -5 0
-7 -4 -4 -10z"/>
<path d="M3005 2457 c-4 -10 -5 -21 -1 -24 10 -10 18 4 13 24 -4 17 -4 17 -12
0z"/>
<path d="M3290 2454 c0 -9 5 -14 12 -12 18 6 21 28 4 28 -9 0 -16 -7 -16 -16z"/>
<path d="M2556 2434 c-4 -11 0 -15 16 -12 12 2 23 9 26 16 6 18 -35 15 -42 -4z"/>
<path d="M3330 2429 c0 -5 5 -7 10 -4 6 3 10 8 10 11 0 2 -4 4 -10 4 -5 0 -10
-5 -10 -11z"/>
<path d="M3367 2434 c-4 -4 -7 -14 -7 -23 0 -11 3 -12 11 -4 6 6 10 16 7 23
-2 6 -7 8 -11 4z"/>
<path d="M2810 2420 c0 -5 5 -10 11 -10 5 0 7 5 4 10 -3 6 -8 10 -11 10 -2 0
-4 -4 -4 -10z"/>
<path d="M2856 2421 c-4 -5 -2 -12 3 -15 5 -4 12 -2 15 3 4 5 2 12 -3 15 -5 4
-12 2 -15 -3z"/>
<path d="M2976 2411 c-4 -7 -5 -15 -2 -18 9 -9 19 4 14 18 -4 11 -6 11 -12 0z"/>
<path d="M3250 2406 c0 -9 5 -16 10 -16 6 0 10 4 10 9 0 6 -4 13 -10 16 -5 3
-10 -1 -10 -9z"/>
<path d="M3290 2400 c0 -5 4 -10 9 -10 6 0 13 5 16 10 3 6 -1 10 -9 10 -9 0
-16 -4 -16 -10z"/>
<path d="M2670 2385 c0 -9 6 -12 15 -9 8 4 12 10 9 15 -8 14 -24 10 -24 -6z"/>
<path d="M3380 2384 c0 -8 5 -12 10 -9 6 3 10 10 10 16 0 5 -4 9 -10 9 -5 0
-10 -7 -10 -16z"/>
<path d="M3510 2375 c0 -8 7 -15 15 -15 8 0 15 7 15 15 0 8 -7 15 -15 15 -8 0
-15 -7 -15 -15z"/>
<path d="M1145 1620 c-3 -5 -1 -10 4 -10 6 0 11 5 11 10 0 6 -2 10 -4 10 -3 0
-8 -4 -11 -10z"/>
<path d="M1199 1568 c-3 -5 -9 -42 -11 -67 -2 -13 3 -26 10 -28 8 -3 12 10 12
46 0 42 -5 62 -11 49z"/>
<path d="M1150 1520 c0 -11 5 -20 10 -20 6 0 10 9 10 20 0 11 -4 20 -10 20 -5
0 -10 -9 -10 -20z"/>
<path d="M1150 1475 c0 -9 5 -15 11 -13 6 2 11 8 11 13 0 5 -5 11 -11 13 -6 2
-11 -4 -11 -13z"/>
<path d="M1070 1181 c0 -5 5 -13 10 -16 6 -3 10 -2 10 4 0 5 -4 13 -10 16 -5
3 -10 2 -10 -4z"/>
<path d="M2110 1624 c0 -8 9 -14 20 -14 11 0 20 4 20 9 0 5 -9 11 -20 14 -13
3 -20 0 -20 -9z"/>
<path d="M1875 1620 c3 -5 8 -10 11 -10 2 0 4 5 4 10 0 6 -5 10 -11 10 -5 0
-7 -4 -4 -10z"/>
<path d="M1980 1610 c0 -5 5 -10 10 -10 6 0 10 5 10 10 0 6 -4 10 -10 10 -5 0
-10 -4 -10 -10z"/>
<path d="M1558 1604 c-10 -10 14 -84 27 -84 13 0 15 24 2 36 -4 4 -7 15 -7 25
0 19 -13 32 -22 23z"/>
<path d="M1690 1575 c-10 -12 -10 -15 4 -15 9 0 16 7 16 15 0 8 -2 15 -4 15
-2 0 -9 -7 -16 -15z"/>
<path d="M2137 1565 c-4 -8 -2 -17 3 -20 6 -4 10 3 10 14 0 25 -6 27 -13 6z"/>
<path d="M2020 1560 c0 -5 5 -10 10 -10 6 0 10 5 10 10 0 6 -4 10 -10 10 -5 0
-10 -4 -10 -10z"/>
<path d="M2180 1545 c0 -8 5 -15 10 -15 6 0 10 7 10 15 0 8 -4 15 -10 15 -5 0
-10 -7 -10 -15z"/>
<path d="M1970 1519 c0 -5 5 -7 10 -4 6 3 10 8 10 11 0 2 -4 4 -10 4 -5 0 -10
-5 -10 -11z"/>
<path d="M2160 1518 c0 -8 7 -15 15 -15 18 0 15 19 -3 25 -7 2 -12 -3 -12 -10z"/>
<path d="M2210 1520 c0 -5 5 -10 11 -10 5 0 7 5 4 10 -3 6 -8 10 -11 10 -2 0
-4 -4 -4 -10z"/>
<path d="M1620 1500 c0 -5 7 -10 16 -10 8 0 12 5 9 10 -3 6 -10 10 -16 10 -5
0 -9 -4 -9 -10z"/>
<path d="M2250 1474 c0 -8 5 -12 10 -9 6 4 8 11 5 16 -9 14 -15 11 -15 -7z"/>
<path d="M1668 1408 c-1 -29 -1 -77 1 -106 2 -31 -2 -59 -10 -68 -21 -26 3
-33 109 -35 56 0 105 -5 108 -10 3 -5 11 -6 17 -2 15 9 18 10 85 11 l52 2 0
76 c0 58 4 80 16 88 15 12 10 46 -7 46 -5 0 -9 11 -9 25 l0 25 -180 0 -180 0
-2 -52z"/>
<path d="M1626 1401 c-4 -5 -2 -12 3 -15 5 -4 12 -2 15 3 4 5 2 12 -3 15 -5 4
-12 2 -15 -3z"/>
<path d="M1620 1349 c0 -11 4 -18 10 -14 5 3 7 12 3 20 -7 21 -13 19 -13 -6z"/>
<path d="M2080 1330 c20 -13 40 -13 40 0 0 6 -12 10 -27 10 -22 0 -25 -2 -13
-10z"/>
<path d="M1470 1210 c0 -5 10 -10 23 -10 18 0 19 2 7 10 -19 13 -30 13 -30 0z"/>
<path d="M1477 1173 c-12 -12 -7 -22 8 -17 8 4 15 10 15 15 0 11 -14 12 -23 2z"/>
<path d="M1912 1159 c-15 -23 -15 -32 -1 -27 6 2 10 7 9 12 -1 5 4 12 10 16 7
4 8 10 3 13 -5 3 -14 -3 -21 -14z"/>
<path d="M1965 1160 c3 -5 10 -10 16 -10 5 0 9 5 9 10 0 6 -7 10 -16 10 -8 0
-12 -4 -9 -10z"/>
<path d="M1477 1114 c-10 -11 -9 -44 2 -44 15 0 19 13 12 33 -4 10 -10 15 -14
11z"/>
<path d="M2015 1100 c3 -5 10 -10 16 -10 5 0 9 5 9 10 0 6 -7 10 -16 10 -8 0
-12 -4 -9 -10z"/>
<path d="M1787 1050 c3 -11 7 -20 9 -20 2 0 4 9 4 20 0 11 -4 20 -9 20 -5 0
-7 -9 -4 -20z"/>
<path d="M2021 1051 c-7 -5 -9 -11 -4 -14 5 -3 15 -2 22 2 7 5 9 11 4 14 -5 3
-15 2 -22 -2z"/>
<path d="M2981 1594 c0 -11 3 -14 6 -6 3 7 2 16 -1 19 -3 4 -6 -2 -5 -13z"/>
<path d="M2530 1555 c0 -9 6 -12 15 -9 8 4 15 10 15 15 0 5 -7 9 -15 9 -8 0
-15 -7 -15 -15z"/>
<path d="M2976 1545 c4 -8 8 -15 10 -15 2 0 4 7 4 15 0 8 -4 15 -10 15 -5 0
-7 -7 -4 -15z"/>
<path d="M3004 1345 c3 -8 1 -15 -4 -15 -6 0 -10 -5 -10 -10 0 -6 8 -5 20 2
24 15 26 38 4 38 -10 0 -14 -6 -10 -15z"/>
<path d="M3011 1301 c-9 -6 -11 -16 -6 -32 l8 -24 9 24 c11 31 7 43 -11 32z"/>
<path d="M2374 1234 c7 -34 14 -41 29 -25 9 10 8 15 -5 25 -10 7 -15 16 -11
19 3 4 1 7 -6 7 -7 0 -10 -10 -7 -26z"/>
<path d="M2340 1201 c0 -6 5 -13 10 -16 6 -3 10 1 10 9 0 9 -4 16 -10 16 -5 0
-10 -4 -10 -9z"/>
<path d="M2727 1183 c-10 -9 -9 -23 1 -23 5 0 9 7 9 15 0 17 -1 18 -10 8z"/>
<path d="M2594 1165 c21 -16 32 -13 21 4 -3 6 -14 11 -23 11 -15 -1 -15 -2 2
-15z"/>
<path d="M2643 1149 c1 -18 8 -34 14 -36 9 -3 12 6 10 28 -3 43 -26 51 -24 8z"/>
<path d="M2913 1172 c-9 -6 -7 -11 7 -20 17 -11 20 -10 20 8 0 21 -7 25 -27
12z"/>
<path d="M3005 1133 c0 -27 6 -39 18 -41 9 -2 17 2 17 8 0 6 -4 8 -10 5 -14
-9 -13 8 2 23 8 8 8 15 -2 27 -20 24 -27 18 -25 -22z"/>
<path d="M3110 1156 c0 -2 7 -6 15 -10 8 -3 15 -1 15 4 0 6 -7 10 -15 10 -8 0
-15 -2 -15 -4z"/>
<path d="M2506 1133 c-6 -14 -5 -15 5 -6 7 7 10 15 7 18 -3 3 -9 -2 -12 -12z"/>
<path d="M2540 1140 c0 -5 7 -10 15 -10 8 0 15 5 15 10 0 6 -7 10 -15 10 -8 0
-15 -4 -15 -10z"/>
<path d="M2830 1141 c0 -6 5 -13 10 -16 6 -3 10 1 10 9 0 9 -4 16 -10 16 -5 0
-10 -4 -10 -9z"/>
<path d="M2590 1120 c0 -5 5 -10 10 -10 6 0 10 5 10 10 0 6 -4 10 -10 10 -5 0
-10 -4 -10 -10z"/>
<path d="M2790 1106 c0 -8 7 -16 15 -20 8 -3 15 -10 15 -16 0 -6 7 -18 15 -26
13 -14 15 -13 15 9 0 13 -10 33 -23 45 -27 25 -37 28 -37 8z"/>
<path d="M2914 1105 c19 -14 36 -12 36 6 0 5 -12 9 -27 9 -27 -1 -27 -1 -9
-15z"/>
<path d="M2430 1095 c0 -8 5 -15 10 -15 6 0 10 7 10 15 0 8 -4 15 -10 15 -5 0
-10 -7 -10 -15z"/>
<path d="M2740 1100 c0 -5 4 -10 9 -10 6 0 13 5 16 10 3 6 -1 10 -9 10 -9 0
-16 -4 -16 -10z"/>
<path d="M2597 1072 c-9 -2 -15 -8 -12 -13 8 -12 45 -12 45 0 0 13 -12 18 -33
13z"/>
<path d="M3000 1070 c-13 -8 -13 -11 2 -26 15 -15 16 -14 15 10 -1 14 -2 26
-2 26 0 0 -7 -5 -15 -10z"/>
<path d="M2875 1060 c3 -5 13 -10 21 -10 8 0 14 5 14 10 0 6 -9 10 -21 10 -11
0 -17 -4 -14 -10z"/>
<path d="M2925 1061 c-6 -11 9 -23 19 -14 9 9 7 23 -3 23 -6 0 -12 -4 -16 -9z"/>
<path d="M3410 1620 c0 -5 6 -10 14 -10 8 0 18 5 21 10 3 6 -3 10 -14 10 -12
0 -21 -4 -21 -10z"/>
<path d="M3568 1605 c-4 -16 -2 -34 3 -39 14 -15 18 -3 10 34 l-7 35 -6 -30z"/>
<path d="M3480 1604 c0 -8 5 -12 10 -9 6 3 10 10 10 16 0 5 -4 9 -10 9 -5 0
-10 -7 -10 -16z"/>
<path d="M3760 1610 c0 -5 5 -10 11 -10 5 0 7 5 4 10 -3 6 -8 10 -11 10 -2 0
-4 -4 -4 -10z"/>
<path d="M3890 1601 c0 -5 5 -13 10 -16 6 -3 10 -2 10 4 0 5 -4 13 -10 16 -5
3 -10 2 -10 -4z"/>
<path d="M3710 1566 c0 -8 5 -18 10 -21 6 -3 10 3 10 14 0 12 -4 21 -10 21 -5
0 -10 -6 -10 -14z"/>
<path d="M3480 1560 c0 -5 5 -10 10 -10 6 0 10 5 10 10 0 6 -4 10 -10 10 -5 0
-10 -4 -10 -10z"/>
<path d="M3550 1550 c0 -5 5 -10 10 -10 6 0 10 5 10 10 0 6 -4 10 -10 10 -5 0
-10 -4 -10 -10z"/>
<path d="M3740 1549 c0 -5 5 -7 10 -4 6 3 10 8 10 11 0 2 -4 4 -10 4 -5 0 -10
-5 -10 -11z"/>
<path d="M3890 1550 c0 -5 5 -10 10 -10 6 0 10 5 10 10 0 6 -4 10 -10 10 -5 0
-10 -4 -10 -10z"/>
<path d="M3276 1524 c-4 -10 -1 -14 6 -12 15 5 23 28 10 28 -5 0 -13 -7 -16
-16z"/>
<path d="M3390 1425 c-10 -12 -10 -15 4 -15 9 0 16 7 16 15 0 8 -2 15 -4 15
-2 0 -9 -7 -16 -15z"/>
<path d="M3250 1392 c0 -5 7 -13 16 -16 10 -4 14 -1 12 6 -5 15 -28 23 -28 10z"/>
<path d="M3390 1380 c0 -5 5 -10 10 -10 6 0 10 5 10 10 0 6 -4 10 -10 10 -5 0
-10 -4 -10 -10z"/>
<path d="M3850 1360 c-14 -10 -21 -22 -17 -26 4 -4 17 2 29 14 28 28 20 36
-12 12z"/>
<path d="M3943 1303 l-1 -38 13 30 c13 29 11 45 -4 45 -4 0 -8 -17 -8 -37z"/>
<path d="M3390 1320 c0 -5 5 -10 10 -10 6 0 10 5 10 10 0 6 -4 10 -10 10 -5 0
-10 -4 -10 -10z"/>
<path d="M3855 1310 c-3 -5 -1 -10 4 -10 6 0 11 5 11 10 0 6 -2 10 -4 10 -3 0
-8 -4 -11 -10z"/>
<path d="M3886 1304 c-8 -22 -8 -24 9 -24 8 0 19 9 25 20 9 17 8 20 -9 20 -10
0 -22 -7 -25 -16z"/>
<path d="M3375 1290 c-8 -13 3 -30 20 -30 23 0 27 18 6 30 -13 7 -22 7 -26 0z"/>
<path d="M3820 1251 c0 -17 18 -21 24 -6 3 9 0 15 -9 15 -8 0 -15 -4 -15 -9z"/>
<path d="M3385 1219 c-4 -6 -5 -13 -2 -16 7 -7 27 6 27 18 0 12 -17 12 -25 -2z"/>
<path d="M3830 1200 c0 -5 5 -10 10 -10 6 0 10 5 10 10 0 6 -4 10 -10 10 -5 0
-10 -4 -10 -10z"/>
<path d="M3387 1184 c-8 -8 3 -34 14 -34 11 0 12 27 0 34 -4 3 -11 3 -14 0z"/>
<path d="M3264 1155 c-5 -19 -1 -30 12 -40 23 -17 34 -19 34 -5 0 6 -5 10 -10
10 -7 0 -7 6 0 20 8 15 6 21 -10 30 -17 9 -20 7 -26 -15z"/>
<path d="M3880 1171 c0 -5 5 -13 10 -16 6 -3 10 -2 10 4 0 5 -4 13 -10 16 -5
3 -10 2 -10 -4z"/>
<path d="M3970 1149 c0 -5 5 -7 10 -4 6 3 10 8 10 11 0 2 -4 4 -10 4 -5 0 -10
-5 -10 -11z"/>
<path d="M3568 1143 c7 -3 16 -2 19 1 4 3 -2 6 -13 5 -11 0 -14 -3 -6 -6z"/>
<path d="M3740 1136 c0 -18 45 -23 55 -6 3 6 0 10 -9 10 -8 0 -21 3 -30 6 -11
4 -16 1 -16 -10z"/>
<path d="M3830 1140 c0 -5 7 -10 16 -10 8 0 12 5 9 10 -3 6 -10 10 -16 10 -5
0 -9 -4 -9 -10z"/>
<path d="M3515 1130 c-3 -5 -1 -10 4 -10 6 0 11 5 11 10 0 6 -2 10 -4 10 -3 0
-8 -4 -11 -10z"/>
<path d="M3936 1125 c4 -8 10 -12 15 -9 11 6 2 24 -11 24 -5 0 -7 -7 -4 -15z"/>
<path d="M3390 1115 c0 -9 6 -12 15 -9 8 4 15 10 15 15 0 5 -7 9 -15 9 -8 0
-15 -7 -15 -15z"/>
<path d="M3636 1121 c-4 -7 -5 -15 -2 -18 9 -9 19 4 14 18 -4 11 -6 11 -12 0z"/>
<path d="M3441 1111 c-10 -6 -10 -10 -1 -16 13 -8 24 -1 19 14 -3 6 -10 7 -18
2z"/>
<path d="M3826 1095 c-3 -9 0 -15 9 -15 16 0 20 16 6 24 -5 3 -11 -1 -15 -9z"/>
<path d="M3596 1074 c-8 -21 -8 -20 10 -38 18 -18 44 -21 44 -5 0 5 -4 7 -10
4 -5 -3 -10 3 -10 13 0 28 -26 48 -34 26z"/>
<path d="M3780 1075 c0 -8 5 -15 10 -15 6 0 10 7 10 15 0 8 -4 15 -10 15 -5 0
-10 -7 -10 -15z"/>
<path d="M3386 1072 c-3 -6 3 -12 15 -15 12 -3 19 -1 16 6 -5 15 -24 20 -31 9z"/>
<path d="M3520 1030 c0 -5 5 -10 11 -10 5 0 7 5 4 10 -3 6 -8 10 -11 10 -2 0
-4 -4 -4 -10z"/>
<path d="M4223 1536 c-13 -6 -21 -17 -19 -26 2 -8 7 -36 11 -62 7 -50 19 -62
30 -28 3 11 11 20 16 20 5 0 -1 18 -13 40 -20 35 -21 42 -8 50 21 13 9 18 -17
6z"/>
<path d="M4163 1430 c0 -16 4 -30 9 -30 4 0 8 14 8 30 0 17 -4 30 -8 30 -5 0
-9 -13 -9 -30z"/>
<path d="M4130 1420 c0 -5 5 -10 10 -10 6 0 10 5 10 10 0 6 -4 10 -10 10 -5 0
-10 -4 -10 -10z"/>
<path d="M4216 1377 c-24 -18 -6 -67 26 -67 16 0 19 3 11 11 -7 7 -9 25 -6 40
6 31 -3 36 -31 16z"/>
<path d="M4286 1274 c-11 -27 -7 -37 9 -24 16 14 20 40 6 40 -5 0 -12 -7 -15
-16z"/>
<path d="M4100 1245 c0 -9 5 -15 11 -13 6 2 11 8 11 13 0 5 -5 11 -11 13 -6 2
-11 -4 -11 -13z"/>
<path d="M4225 1169 c-10 -15 3 -25 16 -12 7 7 7 13 1 17 -6 3 -14 1 -17 -5z"/>
<path d="M4092 1143 c4 -21 19 -26 38 -13 13 9 13 11 0 20 -23 15 -42 12 -38
-7z"/>
<path d="M4189 1123 c-40 -48 -42 -53 -25 -53 8 0 23 11 32 25 20 30 15 54 -7
28z"/>
<path d="M4100 1101 c0 -5 7 -11 15 -15 9 -3 15 0 15 9 0 8 -7 15 -15 15 -8 0
-15 -4 -15 -9z"/>
<path d="M4296 1081 c-4 -7 -5 -15 -2 -18 9 -9 19 4 14 18 -4 11 -6 11 -12 0z"/>
<path d="M4190 1060 c0 -5 5 -10 10 -10 6 0 10 5 10 10 0 6 -4 10 -10 10 -5 0
-10 -4 -10 -10z"/>
<path d="M4758 1644 c-5 -4 -8 -14 -8 -22 0 -8 -8 -21 -17 -28 -16 -12 -16
-13 -2 -14 23 0 41 25 37 50 -2 12 -6 18 -10 14z"/>
<path d="M4790 1629 c0 -5 5 -7 10 -4 6 3 10 8 10 11 0 2 -4 4 -10 4 -5 0 -10
-5 -10 -11z"/>
<path d="M4650 1614 c0 -8 5 -12 10 -9 6 3 10 10 10 16 0 5 -4 9 -10 9 -5 0
-10 -7 -10 -16z"/>
<path d="M4790 1572 c0 -12 0 -25 -1 -29 -1 -12 15 -14 30 -4 11 7 10 13 -8
32 l-21 23 0 -22z"/>
<path d="M4652 1559 c2 -7 10 -15 17 -17 8 -3 12 1 9 9 -2 7 -10 15 -17 17 -8
3 -12 -1 -9 -9z"/>
<path d="M4705 1540 c3 -5 11 -10 16 -10 6 0 7 5 4 10 -3 6 -11 10 -16 10 -6
0 -7 -4 -4 -10z"/>
<path d="M4745 1530 c-3 -5 -2 -10 4 -10 5 0 13 5 16 10 3 6 2 10 -4 10 -5 0
-13 -4 -16 -10z"/>
<path d="M4816 1512 c-2 -4 -1 -14 5 -22 7 -12 9 -10 9 8 0 23 -5 28 -14 14z"/>
<path d="M4703 1489 c-1 -12 3 -19 10 -16 17 5 21 37 5 37 -8 0 -14 -9 -15
-21z"/>
<path d="M4784 1478 c-4 -6 -2 -14 4 -16 17 -5 15 -22 -3 -22 -8 0 -15 -4 -15
-10 0 -5 14 -10 30 -10 33 0 43 26 14 37 -8 3 -13 12 -10 19 7 17 -10 19 -20
2z"/>
<path d="M4640 1450 c0 -5 7 -10 15 -10 8 0 15 -5 15 -11 0 -6 10 -9 23 -7 12
2 21 8 19 13 -2 6 -10 9 -18 7 -8 -2 -14 2 -14 8 0 5 -9 10 -20 10 -11 0 -20
-4 -20 -10z"/>
<path d="M4652 1398 c-16 -16 -15 -45 2 -51 9 -4 16 4 19 21 6 32 -4 47 -21
30z"/>
<path d="M4744 1385 c-4 -9 -4 -18 -2 -21 9 -8 39 8 35 19 -6 18 -27 20 -33 2z"/>
<path d="M4790 1382 c0 -14 11 -21 26 -15 21 8 17 23 -6 23 -11 0 -20 -4 -20
-8z"/>
<path d="M4485 1350 c3 -5 10 -10 16 -10 5 0 9 5 9 10 0 6 -7 10 -16 10 -8 0
-12 -4 -9 -10z"/>
<path d="M4793 1338 c-35 -9 -46 -38 -15 -38 15 0 58 38 50 44 -2 2 -18 -1
-35 -6z"/>
<path d="M4841 1324 c0 -11 3 -14 6 -6 3 7 2 16 -1 19 -3 4 -6 -2 -5 -13z"/>
<path d="M4542 1311 c2 -7 7 -12 11 -12 12 1 9 15 -3 20 -7 2 -11 -2 -8 -8z"/>
<path d="M4690 1301 c0 -19 26 -48 36 -39 7 8 -14 58 -26 58 -5 0 -10 -8 -10
-19z"/>
<path d="M4655 1290 c3 -5 8 -10 11 -10 2 0 4 5 4 10 0 6 -5 10 -11 10 -5 0
-7 -4 -4 -10z"/>
<path d="M4475 1279 c-4 -6 -5 -13 -2 -16 7 -7 27 6 27 18 0 12 -17 12 -25 -2z"/>
<path d="M4745 1270 c-3 -5 1 -10 9 -10 9 0 16 5 16 10 0 6 -4 10 -9 10 -6 0
-13 -4 -16 -10z"/>
<path d="M4786 1271 c-3 -5 1 -11 9 -15 8 -3 15 -1 15 4 0 13 -18 22 -24 11z"/>
<path d="M4755 1221 c-3 -5 -1 -12 5 -16 5 -3 10 1 10 9 0 18 -6 21 -15 7z"/>
<path d="M4782 1219 c2 -7 10 -15 17 -17 8 -3 12 1 9 9 -2 7 -10 15 -17 17 -8
3 -12 -1 -9 -9z"/>
<path d="M4747 1133 c-12 -11 -8 -25 5 -21 7 3 19 -1 26 -9 17 -17 32 -17 32
0 0 8 -11 19 -25 25 -30 14 -30 14 -38 5z"/>
<path d="M4700 1116 c0 -9 5 -16 10 -16 6 0 10 4 10 9 0 6 -4 13 -10 16 -5 3
-10 -1 -10 -9z"/>
<path d="M4984 1619 c-12 -20 11 -27 30 -8 19 19 19 19 -2 19 -11 0 -24 -5
-28 -11z"/>
<path d="M5185 1620 c-3 -6 1 -13 10 -16 19 -8 30 0 20 15 -8 14 -22 14 -30 1z"/>
<path d="M5020 1600 c0 -5 4 -10 9 -10 6 0 13 5 16 10 3 6 -1 10 -9 10 -9 0
-16 -4 -16 -10z"/>
<path d="M5070 1584 c0 -8 5 -12 10 -9 6 3 10 10 10 16 0 5 -4 9 -10 9 -5 0
-10 -7 -10 -16z"/>
<path d="M5264 1560 c-1 -23 4 -41 11 -44 17 -6 18 59 1 73 -8 7 -12 -1 -12
-29z"/>
<path d="M5321 1574 c0 -11 3 -14 6 -6 3 7 2 16 -1 19 -3 4 -6 -2 -5 -13z"/>
<path d="M4982 1569 c2 -7 10 -15 17 -17 8 -3 12 1 9 9 -2 7 -10 15 -17 17 -8
3 -12 -1 -9 -9z"/>
<path d="M5022 1556 c1 -10 8 -17 13 -17 15 1 12 24 -3 29 -9 3 -13 -2 -10
-12z"/>
<path d="M5225 1560 c-3 -5 -1 -10 4 -10 6 0 11 5 11 10 0 6 -2 10 -4 10 -3 0
-8 -4 -11 -10z"/>
<path d="M5351 1533 c0 -10 3 -13 5 -6 3 7 13 9 22 6 15 -4 15 -3 2 6 -22 15
-30 14 -29 -6z"/>
<path d="M5530 1513 c0 -23 2 -24 17 -12 9 8 18 13 20 12 1 -2 3 0 4 4 0 4 -9
10 -20 15 -18 6 -21 3 -21 -19z"/>
<path d="M5432 1518 c6 -18 28 -21 28 -4 0 9 -7 16 -16 16 -9 0 -14 -5 -12
-12z"/>
<path d="M5485 1520 c3 -5 13 -10 21 -10 8 0 12 5 9 10 -3 6 -13 10 -21 10 -8
0 -12 -4 -9 -10z"/>
<path d="M5255 1480 c-3 -5 1 -10 9 -10 9 0 16 5 16 10 0 6 -4 10 -9 10 -6 0
-13 -4 -16 -10z"/>
<path d="M5315 1471 c-3 -5 -1 -12 5 -16 5 -3 10 1 10 9 0 18 -6 21 -15 7z"/>
<path d="M5186 1361 c-4 -7 -5 -15 -2 -18 9 -9 19 4 14 18 -4 11 -6 11 -12 0z"/>
<path d="M5350 1330 c0 -5 5 -10 11 -10 5 0 7 5 4 10 -3 6 -8 10 -11 10 -2 0
-4 -4 -4 -10z"/>
<path d="M5181 1304 c0 -11 3 -14 6 -6 3 7 2 16 -1 19 -3 4 -6 -2 -5 -13z"/>
<path d="M5355 1240 c3 -5 -1 -10 -9 -10 -17 0 -21 -12 -9 -23 7 -8 43 21 43
35 0 4 -7 8 -16 8 -8 0 -12 -4 -9 -10z"/>
<path d="M5273 1205 c4 -8 -1 -18 -10 -23 -11 -7 -12 -11 -4 -16 14 -9 41 11
41 29 0 7 -7 16 -16 19 -12 4 -15 2 -11 -9z"/>
<path d="M5216 1185 c-8 -23 -8 -35 3 -35 13 0 23 32 13 42 -6 6 -12 3 -16 -7z"/>
<path d="M5360 1190 c-8 -5 -11 -12 -7 -16 4 -4 13 -2 19 4 15 15 7 24 -12 12z"/>
<path d="M5208 1111 c-9 -11 -14 -22 -11 -25 8 -7 35 22 31 34 -2 6 -11 2 -20
-9z"/>
<path d="M5286 1111 c-4 -5 -2 -12 3 -15 5 -4 12 -2 15 3 4 5 2 12 -3 15 -5 4
-12 2 -15 -3z"/>
<path d="M5201 1044 c0 -11 3 -14 6 -6 3 7 2 16 -1 19 -3 4 -6 -2 -5 -13z"/>
<path d="M1585 659 c-4 -6 -5 -13 -2 -16 7 -7 27 6 27 18 0 12 -17 12 -25 -2z"/>
<path d="M1595 601 c-3 -5 -1 -12 5 -16 5 -3 10 1 10 9 0 18 -6 21 -15 7z"/>
<path d="M2070 655 c0 -8 5 -15 10 -15 6 0 10 7 10 15 0 8 -4 15 -10 15 -5 0
-10 -7 -10 -15z"/>
<path d="M2324 727 c3 -10 6 -28 6 -38 0 -16 6 -20 27 -17 39 4 43 35 6 44
-15 4 -32 12 -36 18 -6 7 -7 4 -3 -7z"/>
<path d="M2410 730 c0 -5 5 -10 11 -10 5 0 7 5 4 10 -3 6 -8 10 -11 10 -2 0
-4 -4 -4 -10z"/>
<path d="M2370 641 c0 -12 5 -21 10 -21 6 0 10 6 10 14 0 8 -4 18 -10 21 -5 3
-10 -3 -10 -14z"/>
<path d="M3350 721 c0 -6 5 -13 10 -16 6 -3 10 1 10 9 0 9 -4 16 -10 16 -5 0
-10 -4 -10 -9z"/>
<path d="M3550 730 c0 -5 5 -10 10 -10 6 0 10 5 10 10 0 6 -4 10 -10 10 -5 0
-10 -4 -10 -10z"/>
<path d="M3902 708 c2 -5 8 -9 13 -9 5 0 11 4 13 9 1 5 -4 9 -13 9 -9 0 -14
-4 -13 -9z"/>
<path d="M3917 615 c-4 -8 -2 -17 3 -20 6 -4 10 3 10 14 0 25 -6 27 -13 6z"/>
<path d="M4064 698 c3 -13 6 -32 6 -43 0 -18 1 -19 18 -2 16 17 16 19 0 28
-10 5 -15 16 -12 24 4 8 1 15 -6 15 -8 0 -10 -8 -6 -22z"/>
<path d="M4505 710 c4 -6 11 -8 16 -5 14 9 11 15 -7 15 -8 0 -12 -5 -9 -10z"/>
<path d="M4558 703 c-21 -5 -23 -19 -4 -26 14 -5 36 10 36 25 0 8 -4 9 -32 1z"/>
<path d="M4502 669 c2 -6 8 -10 13 -10 5 0 11 4 13 10 2 6 -4 11 -13 11 -9 0
-15 -5 -13 -11z"/>
</g>
</svg>
